<svg xmlns="http://www.w3.org/2000/svg" xmlns:xlink="http://www.w3.org/1999/xlink" viewBox="50 50 225 225"><style>.st1{opacity:.15}.st3{fill:#f1f1f2}.st4{fill:#231f20}.st5{fill:#808184}.st8{fill:#59595c}.st9{fill:#a7a8ab}.st10{fill:#6d6e70}.st11{fill:#221f1f}.st12{fill:#404041}.st13{fill:#58595b}.st14{fill:#bbbdbf}.st15{fill:#fff}.st16{fill:#a6a8ab}</style><path class="st15" d="M100.1 206.4c-4.7 0-8.8-.8-12.3-2.3-3.5-1.5-6.4-3.7-8.6-6.4-2.3-2.7-4-5.9-5.2-9.6-1.2-3.7-1.7-7.6-1.7-11.9 0-4.3.6-8.3 1.7-12 1.2-3.7 2.9-7 5.2-9.7 2.3-2.7 5.2-4.9 8.6-6.5 3.5-1.6 7.6-2.4 12.3-2.4s8.8.8 12.3 2.4c3.5 1.6 6.4 3.7 8.8 6.5 2.3 2.7 4 6 5.2 9.7 1.1 3.7 1.7 7.7 1.7 12s-.6 8.2-1.7 11.9c-1.1 3.7-2.8 6.9-5.2 9.6-2.3 2.7-5.2 4.9-8.8 6.4-3.4 1.6-7.6 2.3-12.3 2.3zm0-12.1c4.2 0 7.2-1.6 9-4.7 1.8-3.1 2.7-7.6 2.7-13.4 0-5.8-.9-10.3-2.7-13.4-1.8-3.1-4.8-4.7-9-4.7-4.1 0-7.1 1.6-8.9 4.7-1.8 3.1-2.8 7.6-2.8 13.4 0 5.8.9 10.3 2.8 13.4 1.8 3.2 4.8 4.7 8.9 4.7zm51.8-14.5c-4.2-1.2-7.5-3-9.8-5.3-2.4-2.4-3.5-5.9-3.5-10.6 0-5.7 2-10.1 6.1-13.4 4.1-3.2 9.6-4.8 16.7-4.8a49.13 49.13 0 0 1 17.2 3.2c-.2 1.9-.5 4-1.1 6.1-.6 2.1-1.3 3.9-2.1 5.5-1.8-.7-3.8-1.4-5.9-2-2.2-.6-4.5-.8-6.8-.8-2.5 0-4.5.4-5.9 1.2-1.4.8-2.1 2-2.1 3.8 0 1.6.5 2.8 1.5 3.5 1 .7 2.4 1.3 4.3 1.9l6.4 1.9c2.1.6 4 1.3 5.7 2.2 1.7.9 3.1 1.9 4.3 3.2 1.2 1.3 2.1 2.8 2.8 4.7.7 1.9 1 4.2 1 6.8 0 2.8-.6 5.3-1.7 7.7a17.6 17.6 0 0 1-5 6.2c-2.2 1.8-4.9 3.1-8 4.2a35 35 0 0 1-10.7 1.5c-1.8 0-3.4-.1-4.9-.2-1.5-.1-2.9-.3-4.3-.6s-2.7-.6-4.1-1c-1.3-.4-2.8-.9-4.4-1.5.1-2 .5-4.1 1.1-6.1.6-2.1 1.3-4.1 2.2-6 2.5 1 4.8 1.7 7 2.2 2.2.5 4.5.7 6.9.7 1 0 2.2-.1 3.4-.3 1.2-.2 2.4-.5 3.4-1s1.9-1.1 2.6-1.9c.7-.8 1.1-1.8 1.1-3.1 0-1.8-.5-3.1-1.6-3.9-1.1-.8-2.6-1.5-4.5-2.1l-7.3-1.9zm39.3-32.7c2.7-.4 5.3-.7 8-.7 2.6 0 5.3.2 8 .7v30.7c0 3.1.2 5.6.7 7.6.5 2 1.2 3.6 2.2 4.7 1 1.2 2.3 2 3.8 2.5s3.3.7 5.3.7c2.8 0 5.1-.3 7-.8v-45.4c2.7-.4 5.3-.7 7.9-.7 2.6 0 5.3.2 8 .7v55.8c-2.4.8-5.6 1.6-9.5 2.4a65.33 65.33 0 0 1-23.3.3c-3.5-.6-6.6-1.9-9.3-3.8-2.7-1.9-4.8-4.8-6.3-8.5-1.6-3.7-2.4-8.7-2.4-14.9v-31.3zm65.9 58c-.4-2.8-.7-5.5-.7-8.2 0-2.7.2-5.5.7-8.3 2.8-.4 5.5-.7 8.2-.7 2.7 0 5.5.2 8.3.7.4 2.8.7 5.6.7 8.2 0 2.8-.2 5.5-.7 8.3-2.8.4-5.6.7-8.2.7-2.8-.1-5.5-.3-8.3-.7zm-.4-80.7c2.9-.4 5.8-.7 8.6-.7 2.9 0 5.8.2 8.8.7l-1.1 54.9c-2.6.4-5.1.7-7.5.7-2.5 0-5.1-.2-7.6-.7l-1.2-54.9z"/></svg>